<mxfile host="app.diagrams.net" agent="Mozilla/5.0 (Windows NT 10.0; Win64; x64; rv:134.0) Gecko/20100101 Firefox/134.0" version="25.0.3">
  <diagram name="PÃ¡gina-1" id="bTN-haNGZ45T5X3rGcDB">
    <mxGraphModel dx="1290" dy="529" grid="1" gridSize="10" guides="1" tooltips="1" connect="1" arrows="1" fold="1" page="1" pageScale="1" pageWidth="1654" pageHeight="1169" math="0" shadow="0">
      <root>
        <mxCell id="0" />
        <mxCell id="1" parent="0" />
        <mxCell id="9Xr3Zw-u--GG_oh1oP_b-1" value="Museu" style="swimlane;fontStyle=0;childLayout=stackLayout;horizontal=1;startSize=30;horizontalStack=0;resizeParent=1;resizeParentMax=0;resizeLast=0;collapsible=1;marginBottom=0;whiteSpace=wrap;html=1;" parent="1" vertex="1">
          <mxGeometry x="520" y="40" width="140" height="180" as="geometry" />
        </mxCell>
        <mxCell id="9Xr3Zw-u--GG_oh1oP_b-2" value="id_museu" style="text;strokeColor=none;fillColor=none;align=left;verticalAlign=middle;spacingLeft=4;spacingRight=4;overflow=hidden;points=[[0,0.5],[1,0.5]];portConstraint=eastwest;rotatable=0;whiteSpace=wrap;html=1;fontStyle=4" parent="9Xr3Zw-u--GG_oh1oP_b-1" vertex="1">
          <mxGeometry y="30" width="140" height="30" as="geometry" />
        </mxCell>
        <mxCell id="9Xr3Zw-u--GG_oh1oP_b-3" value="nom" style="text;strokeColor=none;fillColor=none;align=left;verticalAlign=middle;spacingLeft=4;spacingRight=4;overflow=hidden;points=[[0,0.5],[1,0.5]];portConstraint=eastwest;rotatable=0;whiteSpace=wrap;html=1;" parent="9Xr3Zw-u--GG_oh1oP_b-1" vertex="1">
          <mxGeometry y="60" width="140" height="30" as="geometry" />
        </mxCell>
        <mxCell id="9Xr3Zw-u--GG_oh1oP_b-56" value="adress" style="text;strokeColor=none;fillColor=none;align=left;verticalAlign=middle;spacingLeft=4;spacingRight=4;overflow=hidden;points=[[0,0.5],[1,0.5]];portConstraint=eastwest;rotatable=0;whiteSpace=wrap;html=1;" parent="9Xr3Zw-u--GG_oh1oP_b-1" vertex="1">
          <mxGeometry y="90" width="140" height="30" as="geometry" />
        </mxCell>
        <mxCell id="9Xr3Zw-u--GG_oh1oP_b-57" value="ciutat" style="text;strokeColor=none;fillColor=none;align=left;verticalAlign=middle;spacingLeft=4;spacingRight=4;overflow=hidden;points=[[0,0.5],[1,0.5]];portConstraint=eastwest;rotatable=0;whiteSpace=wrap;html=1;" parent="9Xr3Zw-u--GG_oh1oP_b-1" vertex="1">
          <mxGeometry y="120" width="140" height="30" as="geometry" />
        </mxCell>
        <mxCell id="9Xr3Zw-u--GG_oh1oP_b-58" value="pais" style="text;strokeColor=none;fillColor=none;align=left;verticalAlign=middle;spacingLeft=4;spacingRight=4;overflow=hidden;points=[[0,0.5],[1,0.5]];portConstraint=eastwest;rotatable=0;whiteSpace=wrap;html=1;" parent="9Xr3Zw-u--GG_oh1oP_b-1" vertex="1">
          <mxGeometry y="150" width="140" height="30" as="geometry" />
        </mxCell>
        <mxCell id="9Xr3Zw-u--GG_oh1oP_b-5" value="Sala" style="swimlane;fontStyle=0;childLayout=stackLayout;horizontal=1;startSize=30;horizontalStack=0;resizeParent=1;resizeParentMax=0;resizeLast=0;collapsible=1;marginBottom=0;whiteSpace=wrap;html=1;" parent="1" vertex="1">
          <mxGeometry x="160" y="40" width="140" height="90" as="geometry" />
        </mxCell>
        <mxCell id="9Xr3Zw-u--GG_oh1oP_b-6" value="id_sala" style="text;strokeColor=none;fillColor=none;align=left;verticalAlign=middle;spacingLeft=4;spacingRight=4;overflow=hidden;points=[[0,0.5],[1,0.5]];portConstraint=eastwest;rotatable=0;whiteSpace=wrap;html=1;fontStyle=4" parent="9Xr3Zw-u--GG_oh1oP_b-5" vertex="1">
          <mxGeometry y="30" width="140" height="30" as="geometry" />
        </mxCell>
        <mxCell id="9Xr3Zw-u--GG_oh1oP_b-7" value="nom" style="text;strokeColor=none;fillColor=none;align=left;verticalAlign=middle;spacingLeft=4;spacingRight=4;overflow=hidden;points=[[0,0.5],[1,0.5]];portConstraint=eastwest;rotatable=0;whiteSpace=wrap;html=1;" parent="9Xr3Zw-u--GG_oh1oP_b-5" vertex="1">
          <mxGeometry y="60" width="140" height="30" as="geometry" />
        </mxCell>
        <mxCell id="9Xr3Zw-u--GG_oh1oP_b-9" value="Obra" style="swimlane;fontStyle=0;childLayout=stackLayout;horizontal=1;startSize=30;horizontalStack=0;resizeParent=1;resizeParentMax=0;resizeLast=0;collapsible=1;marginBottom=0;whiteSpace=wrap;html=1;" parent="1" vertex="1">
          <mxGeometry x="160" y="360" width="140" height="90" as="geometry" />
        </mxCell>
        <mxCell id="9Xr3Zw-u--GG_oh1oP_b-10" value="id_obra" style="text;strokeColor=none;fillColor=none;align=left;verticalAlign=middle;spacingLeft=4;spacingRight=4;overflow=hidden;points=[[0,0.5],[1,0.5]];portConstraint=eastwest;rotatable=0;whiteSpace=wrap;html=1;fontStyle=4" parent="9Xr3Zw-u--GG_oh1oP_b-9" vertex="1">
          <mxGeometry y="30" width="140" height="30" as="geometry" />
        </mxCell>
        <mxCell id="9Xr3Zw-u--GG_oh1oP_b-11" value="nom" style="text;strokeColor=none;fillColor=none;align=left;verticalAlign=middle;spacingLeft=4;spacingRight=4;overflow=hidden;points=[[0,0.5],[1,0.5]];portConstraint=eastwest;rotatable=0;whiteSpace=wrap;html=1;" parent="9Xr3Zw-u--GG_oh1oP_b-9" vertex="1">
          <mxGeometry y="60" width="140" height="30" as="geometry" />
        </mxCell>
        <mxCell id="9Xr3Zw-u--GG_oh1oP_b-13" value="Pintura" style="swimlane;fontStyle=0;childLayout=stackLayout;horizontal=1;startSize=30;horizontalStack=0;resizeParent=1;resizeParentMax=0;resizeLast=0;collapsible=1;marginBottom=0;whiteSpace=wrap;html=1;" parent="1" vertex="1">
          <mxGeometry x="20" y="640" width="140" height="90" as="geometry" />
        </mxCell>
        <mxCell id="9Xr3Zw-u--GG_oh1oP_b-14" value="&lt;div&gt;format&lt;/div&gt;" style="text;strokeColor=none;fillColor=none;align=left;verticalAlign=middle;spacingLeft=4;spacingRight=4;overflow=hidden;points=[[0,0.5],[1,0.5]];portConstraint=eastwest;rotatable=0;whiteSpace=wrap;html=1;" parent="9Xr3Zw-u--GG_oh1oP_b-13" vertex="1">
          <mxGeometry y="30" width="140" height="30" as="geometry" />
        </mxCell>
        <mxCell id="9Xr3Zw-u--GG_oh1oP_b-15" value="tecnica" style="text;strokeColor=none;fillColor=none;align=left;verticalAlign=middle;spacingLeft=4;spacingRight=4;overflow=hidden;points=[[0,0.5],[1,0.5]];portConstraint=eastwest;rotatable=0;whiteSpace=wrap;html=1;" parent="9Xr3Zw-u--GG_oh1oP_b-13" vertex="1">
          <mxGeometry y="60" width="140" height="30" as="geometry" />
        </mxCell>
        <mxCell id="9Xr3Zw-u--GG_oh1oP_b-17" value="Escultura" style="swimlane;fontStyle=0;childLayout=stackLayout;horizontal=1;startSize=30;horizontalStack=0;resizeParent=1;resizeParentMax=0;resizeLast=0;collapsible=1;marginBottom=0;whiteSpace=wrap;html=1;" parent="1" vertex="1">
          <mxGeometry x="320" y="640" width="140" height="90" as="geometry" />
        </mxCell>
        <mxCell id="9Xr3Zw-u--GG_oh1oP_b-18" value="material" style="text;strokeColor=none;fillColor=none;align=left;verticalAlign=middle;spacingLeft=4;spacingRight=4;overflow=hidden;points=[[0,0.5],[1,0.5]];portConstraint=eastwest;rotatable=0;whiteSpace=wrap;html=1;" parent="9Xr3Zw-u--GG_oh1oP_b-17" vertex="1">
          <mxGeometry y="30" width="140" height="30" as="geometry" />
        </mxCell>
        <mxCell id="9Xr3Zw-u--GG_oh1oP_b-19" value="Estil" style="text;strokeColor=none;fillColor=none;align=left;verticalAlign=middle;spacingLeft=4;spacingRight=4;overflow=hidden;points=[[0,0.5],[1,0.5]];portConstraint=eastwest;rotatable=0;whiteSpace=wrap;html=1;" parent="9Xr3Zw-u--GG_oh1oP_b-17" vertex="1">
          <mxGeometry y="60" width="140" height="30" as="geometry" />
        </mxCell>
        <mxCell id="9Xr3Zw-u--GG_oh1oP_b-21" value="" style="triangle;whiteSpace=wrap;html=1;rotation=90;" parent="1" vertex="1">
          <mxGeometry x="200" y="530" width="60" height="80" as="geometry" />
        </mxCell>
        <mxCell id="9Xr3Zw-u--GG_oh1oP_b-22" value="Expo" style="swimlane;fontStyle=0;childLayout=stackLayout;horizontal=1;startSize=30;horizontalStack=0;resizeParent=1;resizeParentMax=0;resizeLast=0;collapsible=1;marginBottom=0;whiteSpace=wrap;html=1;" parent="1" vertex="1">
          <mxGeometry x="740" y="320" width="140" height="90" as="geometry" />
        </mxCell>
        <mxCell id="9Xr3Zw-u--GG_oh1oP_b-23" value="id_expo" style="text;strokeColor=none;fillColor=none;align=left;verticalAlign=middle;spacingLeft=4;spacingRight=4;overflow=hidden;points=[[0,0.5],[1,0.5]];portConstraint=eastwest;rotatable=0;whiteSpace=wrap;html=1;fontStyle=4" parent="9Xr3Zw-u--GG_oh1oP_b-22" vertex="1">
          <mxGeometry y="30" width="140" height="30" as="geometry" />
        </mxCell>
        <mxCell id="9Xr3Zw-u--GG_oh1oP_b-24" value="nom" style="text;strokeColor=none;fillColor=none;align=left;verticalAlign=middle;spacingLeft=4;spacingRight=4;overflow=hidden;points=[[0,0.5],[1,0.5]];portConstraint=eastwest;rotatable=0;whiteSpace=wrap;html=1;" parent="9Xr3Zw-u--GG_oh1oP_b-22" vertex="1">
          <mxGeometry y="60" width="140" height="30" as="geometry" />
        </mxCell>
        <mxCell id="9Xr3Zw-u--GG_oh1oP_b-26" value="Autor" style="swimlane;fontStyle=0;childLayout=stackLayout;horizontal=1;startSize=30;horizontalStack=0;resizeParent=1;resizeParentMax=0;resizeLast=0;collapsible=1;marginBottom=0;whiteSpace=wrap;html=1;" parent="1" vertex="1">
          <mxGeometry x="730" y="530" width="140" height="120" as="geometry" />
        </mxCell>
        <mxCell id="9Xr3Zw-u--GG_oh1oP_b-27" value="Id_autor" style="text;strokeColor=none;fillColor=none;align=left;verticalAlign=middle;spacingLeft=4;spacingRight=4;overflow=hidden;points=[[0,0.5],[1,0.5]];portConstraint=eastwest;rotatable=0;whiteSpace=wrap;html=1;fontStyle=4" parent="9Xr3Zw-u--GG_oh1oP_b-26" vertex="1">
          <mxGeometry y="30" width="140" height="30" as="geometry" />
        </mxCell>
        <mxCell id="9Xr3Zw-u--GG_oh1oP_b-28" value="nom" style="text;strokeColor=none;fillColor=none;align=left;verticalAlign=middle;spacingLeft=4;spacingRight=4;overflow=hidden;points=[[0,0.5],[1,0.5]];portConstraint=eastwest;rotatable=0;whiteSpace=wrap;html=1;" parent="9Xr3Zw-u--GG_oh1oP_b-26" vertex="1">
          <mxGeometry y="60" width="140" height="30" as="geometry" />
        </mxCell>
        <mxCell id="9Xr3Zw-u--GG_oh1oP_b-29" value="nacionalitat" style="text;strokeColor=none;fillColor=none;align=left;verticalAlign=middle;spacingLeft=4;spacingRight=4;overflow=hidden;points=[[0,0.5],[1,0.5]];portConstraint=eastwest;rotatable=0;whiteSpace=wrap;html=1;" parent="9Xr3Zw-u--GG_oh1oP_b-26" vertex="1">
          <mxGeometry y="90" width="140" height="30" as="geometry" />
        </mxCell>
        <mxCell id="9Xr3Zw-u--GG_oh1oP_b-30" value="Data" style="swimlane;fontStyle=0;childLayout=stackLayout;horizontal=1;startSize=30;horizontalStack=0;resizeParent=1;resizeParentMax=0;resizeLast=0;collapsible=1;marginBottom=0;whiteSpace=wrap;html=1;" parent="1" vertex="1">
          <mxGeometry x="1060" y="95" width="140" height="60" as="geometry" />
        </mxCell>
        <mxCell id="9Xr3Zw-u--GG_oh1oP_b-31" value="data_inici" style="text;strokeColor=none;fillColor=none;align=left;verticalAlign=middle;spacingLeft=4;spacingRight=4;overflow=hidden;points=[[0,0.5],[1,0.5]];portConstraint=eastwest;rotatable=0;whiteSpace=wrap;html=1;fontStyle=4" parent="9Xr3Zw-u--GG_oh1oP_b-30" vertex="1">
          <mxGeometry y="30" width="140" height="30" as="geometry" />
        </mxCell>
        <mxCell id="9Xr3Zw-u--GG_oh1oP_b-34" value="" style="rhombus;whiteSpace=wrap;html=1;" parent="1" vertex="1">
          <mxGeometry x="470" y="500" width="80" height="80" as="geometry" />
        </mxCell>
        <mxCell id="9Xr3Zw-u--GG_oh1oP_b-35" value="" style="rhombus;whiteSpace=wrap;html=1;" parent="1" vertex="1">
          <mxGeometry x="490" y="360" width="80" height="80" as="geometry" />
        </mxCell>
        <mxCell id="9Xr3Zw-u--GG_oh1oP_b-36" value="" style="rhombus;whiteSpace=wrap;html=1;" parent="1" vertex="1">
          <mxGeometry x="190" y="200" width="80" height="80" as="geometry" />
        </mxCell>
        <mxCell id="9Xr3Zw-u--GG_oh1oP_b-37" value="" style="rhombus;whiteSpace=wrap;html=1;" parent="1" vertex="1">
          <mxGeometry x="400" y="260" width="80" height="80" as="geometry" />
        </mxCell>
        <mxCell id="9Xr3Zw-u--GG_oh1oP_b-38" value="" style="rhombus;whiteSpace=wrap;html=1;" parent="1" vertex="1">
          <mxGeometry x="370" y="75" width="80" height="80" as="geometry" />
        </mxCell>
        <mxCell id="9Xr3Zw-u--GG_oh1oP_b-39" value="" style="endArrow=none;html=1;rounded=0;entryX=0;entryY=0.5;entryDx=0;entryDy=0;exitX=1;exitY=0.5;exitDx=0;exitDy=0;" parent="1" source="9Xr3Zw-u--GG_oh1oP_b-7" target="9Xr3Zw-u--GG_oh1oP_b-38" edge="1">
          <mxGeometry width="50" height="50" relative="1" as="geometry">
            <mxPoint x="330" y="180" as="sourcePoint" />
            <mxPoint x="380" y="130" as="targetPoint" />
          </mxGeometry>
        </mxCell>
        <mxCell id="9Xr3Zw-u--GG_oh1oP_b-40" value="" style="endArrow=none;html=1;rounded=0;entryX=1;entryY=0.5;entryDx=0;entryDy=0;exitX=0;exitY=0.5;exitDx=0;exitDy=0;" parent="1" source="9Xr3Zw-u--GG_oh1oP_b-3" target="9Xr3Zw-u--GG_oh1oP_b-38" edge="1">
          <mxGeometry width="50" height="50" relative="1" as="geometry">
            <mxPoint x="460" y="220" as="sourcePoint" />
            <mxPoint x="510" y="170" as="targetPoint" />
          </mxGeometry>
        </mxCell>
        <mxCell id="9Xr3Zw-u--GG_oh1oP_b-41" value="" style="endArrow=none;html=1;rounded=0;entryX=0.486;entryY=1.067;entryDx=0;entryDy=0;entryPerimeter=0;exitX=0.5;exitY=0;exitDx=0;exitDy=0;" parent="1" source="9Xr3Zw-u--GG_oh1oP_b-36" target="9Xr3Zw-u--GG_oh1oP_b-7" edge="1">
          <mxGeometry width="50" height="50" relative="1" as="geometry">
            <mxPoint x="100" y="290" as="sourcePoint" />
            <mxPoint x="229.01999999999998" y="163.99" as="targetPoint" />
          </mxGeometry>
        </mxCell>
        <mxCell id="9Xr3Zw-u--GG_oh1oP_b-42" value="" style="endArrow=none;html=1;rounded=0;entryX=0.5;entryY=1;entryDx=0;entryDy=0;exitX=0.5;exitY=0;exitDx=0;exitDy=0;" parent="1" source="9Xr3Zw-u--GG_oh1oP_b-9" target="9Xr3Zw-u--GG_oh1oP_b-36" edge="1">
          <mxGeometry width="50" height="50" relative="1" as="geometry">
            <mxPoint x="90" y="360" as="sourcePoint" />
            <mxPoint x="140" y="310" as="targetPoint" />
          </mxGeometry>
        </mxCell>
        <mxCell id="9Xr3Zw-u--GG_oh1oP_b-43" value="" style="endArrow=none;html=1;rounded=0;exitX=1;exitY=0;exitDx=0;exitDy=0;entryX=0;entryY=1;entryDx=0;entryDy=0;" parent="1" source="9Xr3Zw-u--GG_oh1oP_b-9" target="9Xr3Zw-u--GG_oh1oP_b-37" edge="1">
          <mxGeometry width="50" height="50" relative="1" as="geometry">
            <mxPoint x="320" y="370" as="sourcePoint" />
            <mxPoint x="370" y="320" as="targetPoint" />
          </mxGeometry>
        </mxCell>
        <mxCell id="9Xr3Zw-u--GG_oh1oP_b-44" value="" style="endArrow=none;html=1;rounded=0;exitX=1;exitY=0;exitDx=0;exitDy=0;entryX=0.493;entryY=1.033;entryDx=0;entryDy=0;entryPerimeter=0;" parent="1" source="9Xr3Zw-u--GG_oh1oP_b-37" target="9Xr3Zw-u--GG_oh1oP_b-58" edge="1">
          <mxGeometry width="50" height="50" relative="1" as="geometry">
            <mxPoint x="530" y="230" as="sourcePoint" />
            <mxPoint x="570" y="230" as="targetPoint" />
          </mxGeometry>
        </mxCell>
        <mxCell id="9Xr3Zw-u--GG_oh1oP_b-45" value="" style="endArrow=none;html=1;rounded=0;exitX=1;exitY=0.5;exitDx=0;exitDy=0;entryX=0;entryY=0.5;entryDx=0;entryDy=0;" parent="1" source="9Xr3Zw-u--GG_oh1oP_b-10" target="9Xr3Zw-u--GG_oh1oP_b-35" edge="1">
          <mxGeometry width="50" height="50" relative="1" as="geometry">
            <mxPoint x="340" y="500" as="sourcePoint" />
            <mxPoint x="390" y="450" as="targetPoint" />
          </mxGeometry>
        </mxCell>
        <mxCell id="9Xr3Zw-u--GG_oh1oP_b-46" value="" style="endArrow=none;html=1;rounded=0;entryX=0;entryY=0.5;entryDx=0;entryDy=0;exitX=1.007;exitY=1.067;exitDx=0;exitDy=0;exitPerimeter=0;" parent="1" source="9Xr3Zw-u--GG_oh1oP_b-11" target="9Xr3Zw-u--GG_oh1oP_b-34" edge="1">
          <mxGeometry width="50" height="50" relative="1" as="geometry">
            <mxPoint x="300" y="465" as="sourcePoint" />
            <mxPoint x="410" y="490" as="targetPoint" />
          </mxGeometry>
        </mxCell>
        <mxCell id="9Xr3Zw-u--GG_oh1oP_b-47" value="" style="endArrow=none;html=1;rounded=0;exitX=1;exitY=0.5;exitDx=0;exitDy=0;entryX=0;entryY=0.5;entryDx=0;entryDy=0;" parent="1" source="9Xr3Zw-u--GG_oh1oP_b-35" target="9Xr3Zw-u--GG_oh1oP_b-24" edge="1">
          <mxGeometry width="50" height="50" relative="1" as="geometry">
            <mxPoint x="590" y="490" as="sourcePoint" />
            <mxPoint x="720" y="400" as="targetPoint" />
          </mxGeometry>
        </mxCell>
        <mxCell id="9Xr3Zw-u--GG_oh1oP_b-48" value="" style="endArrow=none;html=1;rounded=0;exitX=1;exitY=0.5;exitDx=0;exitDy=0;entryX=0;entryY=0.5;entryDx=0;entryDy=0;" parent="1" source="9Xr3Zw-u--GG_oh1oP_b-34" target="9Xr3Zw-u--GG_oh1oP_b-28" edge="1">
          <mxGeometry width="50" height="50" relative="1" as="geometry">
            <mxPoint x="590" y="580" as="sourcePoint" />
            <mxPoint x="640" y="530" as="targetPoint" />
          </mxGeometry>
        </mxCell>
        <mxCell id="9Xr3Zw-u--GG_oh1oP_b-49" value="" style="endArrow=none;html=1;rounded=0;entryX=1;entryY=0.5;entryDx=0;entryDy=0;exitX=0;exitY=0.5;exitDx=0;exitDy=0;" parent="1" source="9Xr3Zw-u--GG_oh1oP_b-50" target="9Xr3Zw-u--GG_oh1oP_b-3" edge="1">
          <mxGeometry width="50" height="50" relative="1" as="geometry">
            <mxPoint x="660" y="260" as="sourcePoint" />
            <mxPoint x="710" y="210" as="targetPoint" />
          </mxGeometry>
        </mxCell>
        <mxCell id="9Xr3Zw-u--GG_oh1oP_b-50" value="" style="rhombus;whiteSpace=wrap;html=1;" parent="1" vertex="1">
          <mxGeometry x="827" y="75" width="80" height="80" as="geometry" />
        </mxCell>
        <mxCell id="9Xr3Zw-u--GG_oh1oP_b-51" value="" style="endArrow=none;html=1;rounded=0;entryX=1;entryY=0.5;entryDx=0;entryDy=0;exitX=0;exitY=0.5;exitDx=0;exitDy=0;" parent="1" target="9Xr3Zw-u--GG_oh1oP_b-50" edge="1">
          <mxGeometry width="50" height="50" relative="1" as="geometry">
            <mxPoint x="1060" y="125" as="sourcePoint" />
            <mxPoint x="970" y="210" as="targetPoint" />
          </mxGeometry>
        </mxCell>
        <mxCell id="9Xr3Zw-u--GG_oh1oP_b-52" value="" style="endArrow=none;html=1;rounded=0;exitX=1;exitY=0.5;exitDx=0;exitDy=0;entryX=0.5;entryY=1;entryDx=0;entryDy=0;" parent="1" source="9Xr3Zw-u--GG_oh1oP_b-28" target="9Xr3Zw-u--GG_oh1oP_b-50" edge="1">
          <mxGeometry width="50" height="50" relative="1" as="geometry">
            <mxPoint x="970" y="590" as="sourcePoint" />
            <mxPoint x="1020" y="540" as="targetPoint" />
            <Array as="points">
              <mxPoint x="970" y="600" />
              <mxPoint x="960" y="230" />
            </Array>
          </mxGeometry>
        </mxCell>
        <mxCell id="9Xr3Zw-u--GG_oh1oP_b-53" value="" style="endArrow=none;html=1;rounded=0;entryX=0.493;entryY=1.033;entryDx=0;entryDy=0;entryPerimeter=0;exitX=0;exitY=0.5;exitDx=0;exitDy=0;" parent="1" source="9Xr3Zw-u--GG_oh1oP_b-21" target="9Xr3Zw-u--GG_oh1oP_b-11" edge="1">
          <mxGeometry width="50" height="50" relative="1" as="geometry">
            <mxPoint x="100" y="550" as="sourcePoint" />
            <mxPoint x="230.98000000000002" y="482.01" as="targetPoint" />
          </mxGeometry>
        </mxCell>
        <mxCell id="9Xr3Zw-u--GG_oh1oP_b-54" value="" style="endArrow=none;html=1;rounded=0;entryX=0.5;entryY=1;entryDx=0;entryDy=0;exitX=0.5;exitY=0;exitDx=0;exitDy=0;" parent="1" source="9Xr3Zw-u--GG_oh1oP_b-13" target="9Xr3Zw-u--GG_oh1oP_b-21" edge="1">
          <mxGeometry width="50" height="50" relative="1" as="geometry">
            <mxPoint x="110" y="640" as="sourcePoint" />
            <mxPoint x="160" y="590" as="targetPoint" />
          </mxGeometry>
        </mxCell>
        <mxCell id="9Xr3Zw-u--GG_oh1oP_b-55" value="" style="endArrow=none;html=1;rounded=0;entryX=0.5;entryY=0;entryDx=0;entryDy=0;exitX=0.5;exitY=0;exitDx=0;exitDy=0;" parent="1" source="9Xr3Zw-u--GG_oh1oP_b-17" target="9Xr3Zw-u--GG_oh1oP_b-21" edge="1">
          <mxGeometry width="50" height="50" relative="1" as="geometry">
            <mxPoint x="260" y="660" as="sourcePoint" />
            <mxPoint x="310" y="610" as="targetPoint" />
          </mxGeometry>
        </mxCell>
        <mxCell id="9Xr3Zw-u--GG_oh1oP_b-59" value="ID" style="text;html=1;align=center;verticalAlign=middle;whiteSpace=wrap;rounded=0;" parent="1" vertex="1">
          <mxGeometry x="380" y="100" width="60" height="30" as="geometry" />
        </mxCell>
        <mxCell id="9Xr3Zw-u--GG_oh1oP_b-60" value="(1,n)" style="text;html=1;align=center;verticalAlign=middle;whiteSpace=wrap;rounded=0;" parent="1" vertex="1">
          <mxGeometry x="300" y="115" width="60" height="30" as="geometry" />
        </mxCell>
        <mxCell id="9Xr3Zw-u--GG_oh1oP_b-61" value="(1,1)" style="text;html=1;align=center;verticalAlign=middle;whiteSpace=wrap;rounded=0;" parent="1" vertex="1">
          <mxGeometry x="450" y="115" width="60" height="30" as="geometry" />
        </mxCell>
        <mxCell id="9Xr3Zw-u--GG_oh1oP_b-63" value="te" style="text;html=1;align=center;verticalAlign=middle;whiteSpace=wrap;rounded=0;" parent="1" vertex="1">
          <mxGeometry x="300" y="80" width="60" height="30" as="geometry" />
        </mxCell>
        <mxCell id="9Xr3Zw-u--GG_oh1oP_b-64" value="estÃ " style="text;html=1;align=center;verticalAlign=middle;whiteSpace=wrap;rounded=0;" parent="1" vertex="1">
          <mxGeometry x="450" y="85" width="60" height="30" as="geometry" />
        </mxCell>
        <mxCell id="9Xr3Zw-u--GG_oh1oP_b-65" value="1:N" style="text;html=1;align=center;verticalAlign=middle;whiteSpace=wrap;rounded=0;" parent="1" vertex="1">
          <mxGeometry x="380" y="30" width="60" height="30" as="geometry" />
        </mxCell>
        <mxCell id="9Xr3Zw-u--GG_oh1oP_b-66" value="estÃ " style="text;html=1;align=center;verticalAlign=middle;whiteSpace=wrap;rounded=0;" parent="1" vertex="1">
          <mxGeometry x="230" y="160" width="60" height="30" as="geometry" />
        </mxCell>
        <mxCell id="9Xr3Zw-u--GG_oh1oP_b-67" value="te" style="text;html=1;align=center;verticalAlign=middle;whiteSpace=wrap;rounded=0;" parent="1" vertex="1">
          <mxGeometry x="230" y="310" width="60" height="30" as="geometry" />
        </mxCell>
        <mxCell id="9Xr3Zw-u--GG_oh1oP_b-68" value="(0,1)" style="text;html=1;align=center;verticalAlign=middle;whiteSpace=wrap;rounded=0;" parent="1" vertex="1">
          <mxGeometry x="170" y="160" width="60" height="30" as="geometry" />
        </mxCell>
        <mxCell id="9Xr3Zw-u--GG_oh1oP_b-69" value="(0,n)" style="text;html=1;align=center;verticalAlign=middle;whiteSpace=wrap;rounded=0;" parent="1" vertex="1">
          <mxGeometry x="170" y="310" width="60" height="30" as="geometry" />
        </mxCell>
        <mxCell id="9Xr3Zw-u--GG_oh1oP_b-70" value="1:N" style="text;html=1;align=center;verticalAlign=middle;whiteSpace=wrap;rounded=0;" parent="1" vertex="1">
          <mxGeometry x="120" y="225" width="60" height="30" as="geometry" />
        </mxCell>
        <mxCell id="9Xr3Zw-u--GG_oh1oP_b-71" value="estÃ " style="text;html=1;align=center;verticalAlign=middle;whiteSpace=wrap;rounded=0;" parent="1" vertex="1">
          <mxGeometry x="490" y="260" width="60" height="30" as="geometry" />
        </mxCell>
        <mxCell id="9Xr3Zw-u--GG_oh1oP_b-74" value="te" style="text;html=1;align=center;verticalAlign=middle;whiteSpace=wrap;rounded=0;" parent="1" vertex="1">
          <mxGeometry x="340" y="340" width="60" height="30" as="geometry" />
        </mxCell>
        <mxCell id="9Xr3Zw-u--GG_oh1oP_b-75" value="(1,n)" style="text;html=1;align=center;verticalAlign=middle;whiteSpace=wrap;rounded=0;" parent="1" vertex="1">
          <mxGeometry x="320" y="300" width="60" height="30" as="geometry" />
        </mxCell>
        <mxCell id="9Xr3Zw-u--GG_oh1oP_b-76" value="(1,1)" style="text;html=1;align=center;verticalAlign=middle;whiteSpace=wrap;rounded=0;" parent="1" vertex="1">
          <mxGeometry x="450" y="230" width="60" height="30" as="geometry" />
        </mxCell>
        <mxCell id="9Xr3Zw-u--GG_oh1oP_b-77" value="1:N" style="text;html=1;align=center;verticalAlign=middle;whiteSpace=wrap;rounded=0;" parent="1" vertex="1">
          <mxGeometry x="370" y="240" width="60" height="30" as="geometry" />
        </mxCell>
        <mxCell id="9Xr3Zw-u--GG_oh1oP_b-78" value="(1,1)" style="text;html=1;align=center;verticalAlign=middle;whiteSpace=wrap;rounded=0;" parent="1" vertex="1">
          <mxGeometry x="230" y="500" width="60" height="30" as="geometry" />
        </mxCell>
        <mxCell id="9Xr3Zw-u--GG_oh1oP_b-79" value="(0,1)" style="text;html=1;align=center;verticalAlign=middle;whiteSpace=wrap;rounded=0;" parent="1" vertex="1">
          <mxGeometry x="100" y="570" width="60" height="30" as="geometry" />
        </mxCell>
        <mxCell id="9Xr3Zw-u--GG_oh1oP_b-80" value="(0,1)" style="text;html=1;align=center;verticalAlign=middle;whiteSpace=wrap;rounded=0;" parent="1" vertex="1">
          <mxGeometry x="310" y="575" width="60" height="30" as="geometry" />
        </mxCell>
        <mxCell id="9Xr3Zw-u--GG_oh1oP_b-82" value="es creada" style="text;html=1;align=center;verticalAlign=middle;whiteSpace=wrap;rounded=0;" parent="1" vertex="1">
          <mxGeometry x="610" y="580" width="60" height="30" as="geometry" />
        </mxCell>
        <mxCell id="9Xr3Zw-u--GG_oh1oP_b-83" value="crea" style="text;html=1;align=center;verticalAlign=middle;whiteSpace=wrap;rounded=0;" parent="1" vertex="1">
          <mxGeometry x="350" y="510" width="60" height="30" as="geometry" />
        </mxCell>
        <mxCell id="9Xr3Zw-u--GG_oh1oP_b-84" value="(0,m)" style="text;html=1;align=center;verticalAlign=middle;whiteSpace=wrap;rounded=0;" parent="1" vertex="1">
          <mxGeometry x="630" y="540" width="60" height="30" as="geometry" />
        </mxCell>
        <mxCell id="9Xr3Zw-u--GG_oh1oP_b-85" value="(0,n)" style="text;html=1;align=center;verticalAlign=middle;whiteSpace=wrap;rounded=0;" parent="1" vertex="1">
          <mxGeometry x="380" y="480" width="60" height="30" as="geometry" />
        </mxCell>
        <mxCell id="9Xr3Zw-u--GG_oh1oP_b-86" value="AutorXObra" style="text;html=1;align=center;verticalAlign=middle;whiteSpace=wrap;rounded=0;" parent="1" vertex="1">
          <mxGeometry x="480" y="525" width="60" height="30" as="geometry" />
        </mxCell>
        <mxCell id="9Xr3Zw-u--GG_oh1oP_b-87" value="N:M" style="text;html=1;align=center;verticalAlign=middle;whiteSpace=wrap;rounded=0;" parent="1" vertex="1">
          <mxGeometry x="480" y="585" width="60" height="30" as="geometry" />
        </mxCell>
        <mxCell id="9Xr3Zw-u--GG_oh1oP_b-88" value="te" style="text;html=1;align=center;verticalAlign=middle;whiteSpace=wrap;rounded=0;" parent="1" vertex="1">
          <mxGeometry x="390" y="410" width="60" height="30" as="geometry" />
        </mxCell>
        <mxCell id="9Xr3Zw-u--GG_oh1oP_b-89" value="estÃ " style="text;html=1;align=center;verticalAlign=middle;whiteSpace=wrap;rounded=0;" parent="1" vertex="1">
          <mxGeometry x="630" y="405" width="60" height="30" as="geometry" />
        </mxCell>
        <mxCell id="9Xr3Zw-u--GG_oh1oP_b-90" value="(1,n)" style="text;html=1;align=center;verticalAlign=middle;whiteSpace=wrap;rounded=0;" parent="1" vertex="1">
          <mxGeometry x="370" y="380" width="60" height="30" as="geometry" />
        </mxCell>
        <mxCell id="9Xr3Zw-u--GG_oh1oP_b-91" value="(0,n)" style="text;html=1;align=center;verticalAlign=middle;whiteSpace=wrap;rounded=0;" parent="1" vertex="1">
          <mxGeometry x="620" y="365" width="60" height="30" as="geometry" />
        </mxCell>
        <mxCell id="9Xr3Zw-u--GG_oh1oP_b-92" value="N:M" style="text;html=1;align=center;verticalAlign=middle;whiteSpace=wrap;rounded=0;" parent="1" vertex="1">
          <mxGeometry x="500" y="440" width="60" height="30" as="geometry" />
        </mxCell>
        <mxCell id="9Xr3Zw-u--GG_oh1oP_b-93" value="ObraXExpo" style="text;html=1;align=center;verticalAlign=middle;whiteSpace=wrap;rounded=0;" parent="1" vertex="1">
          <mxGeometry x="500" y="385" width="60" height="30" as="geometry" />
        </mxCell>
        <mxCell id="9Xr3Zw-u--GG_oh1oP_b-94" value="data_fi" style="text;html=1;align=center;verticalAlign=middle;whiteSpace=wrap;rounded=0;" parent="1" vertex="1">
          <mxGeometry x="780" y="30" width="60" height="30" as="geometry" />
        </mxCell>
        <mxCell id="9Xr3Zw-u--GG_oh1oP_b-95" value="" style="endArrow=none;html=1;rounded=0;entryX=0;entryY=0;entryDx=0;entryDy=0;exitX=1;exitY=0.5;exitDx=0;exitDy=0;startArrow=oval;startFill=0;" parent="1" source="9Xr3Zw-u--GG_oh1oP_b-94" target="9Xr3Zw-u--GG_oh1oP_b-50" edge="1">
          <mxGeometry width="50" height="50" relative="1" as="geometry">
            <mxPoint x="760" y="120" as="sourcePoint" />
            <mxPoint x="810" y="70" as="targetPoint" />
          </mxGeometry>
        </mxCell>
        <mxCell id="9Xr3Zw-u--GG_oh1oP_b-99" value="(1,1)" style="text;html=1;align=center;verticalAlign=middle;whiteSpace=wrap;rounded=0;" parent="1" vertex="1">
          <mxGeometry x="710" y="85" width="60" height="30" as="geometry" />
        </mxCell>
        <mxCell id="9Xr3Zw-u--GG_oh1oP_b-100" value="(1,n)" style="text;html=1;align=center;verticalAlign=middle;whiteSpace=wrap;rounded=0;" parent="1" vertex="1">
          <mxGeometry x="960" y="85" width="60" height="30" as="geometry" />
        </mxCell>
        <mxCell id="9Xr3Zw-u--GG_oh1oP_b-101" value="(0,n)" style="text;html=1;align=center;verticalAlign=middle;whiteSpace=wrap;rounded=0;" parent="1" vertex="1">
          <mxGeometry x="870" y="190" width="60" height="30" as="geometry" />
        </mxCell>
        <mxCell id="Su4bSiPaYZdLdlpy4_fI-1" value="1:M:N" style="text;html=1;align=center;verticalAlign=middle;whiteSpace=wrap;rounded=0;" vertex="1" parent="1">
          <mxGeometry x="790" y="140" width="60" height="30" as="geometry" />
        </mxCell>
        <mxCell id="Su4bSiPaYZdLdlpy4_fI-2" value="AutorXMuseu" style="text;html=1;align=center;verticalAlign=middle;whiteSpace=wrap;rounded=0;" vertex="1" parent="1">
          <mxGeometry x="837" y="100" width="60" height="30" as="geometry" />
        </mxCell>
      </root>
    </mxGraphModel>
  </diagram>
</mxfile>
